<?xml version="1.0" encoding="UTF-8"?>
<svg viewBox="0 0 958.69946 136.35155" xmlns="http://www.w3.org/2000/svg">
 <defs>
  <clipPath id="a">
   <path d="m74.438 630.93h546.68a15.152 15.152 0 0 1 15.152 15.152v58.267a15.152 15.152 0 0 1 -15.152 15.152h-546.68a15.152 15.152 0 0 1 -15.152 -15.152v-58.267a15.152 15.152 0 0 1 15.152 -15.152"/>
  </clipPath>
  <filter id="c">
   <feGaussianBlur stdDeviation="1.66389"/>
  </filter>
  <linearGradient id="b" x2="0" y1="615.47" y2="639.72" gradientUnits="userSpaceOnUse">
   <stop stop-color="#fff" offset="0"/>
   <stop stop-color="#fff" stop-opacity="0" offset="1"/>
  </linearGradient>
 </defs>
 <g transform="matrix(1.6283 0 0 1.1946 -184.96 -694.35)">
  <path d="m135.15 595.93h546.68a15.152 15.152 0 0 1 15.152 15.152v58.267a15.152 15.152 0 0 1 -15.152 15.152h-546.68a15.152 15.152 0 0 1 -15.152 -15.152v-58.267a15.152 15.152 0 0 1 15.152 -15.152" filter="url(#c)"/>
  <path d="m201.76 595.81h24.936l-62.629 88.571h-24.936z" fill="#d4aa00"/>
  <path d="m239.14 595.81h24.936l-62.629 88.571h-24.936z" fill="#d4aa00"/>
  <path d="m278.03 595.81h24.936l-62.629 88.571h-24.936z" fill="#d4aa00"/>
  <path d="m315.41 595.81h24.936l-62.629 88.571h-24.936z" fill="#d4aa00"/>
  <path d="m354.3 595.81h24.936l-62.629 88.571h-24.936z" fill="#d4aa00"/>
  <path d="m391.67 595.81h24.936l-62.629 88.571h-24.936z" fill="#d4aa00"/>
  <path d="m430.56 595.81h24.936l-62.629 88.571h-24.936z" fill="#d4aa00"/>
  <path d="m467.94 595.81h24.936l-62.629 88.571h-24.936z" fill="#d4aa00"/>
  <path d="m506.32 595.81h24.936l-62.629 88.571h-24.936z" fill="#d4aa00"/>
  <path d="m543.7 595.81h24.936l-62.629 88.571h-24.936z" fill="#d4aa00"/>
  <path d="m582.59 595.81h24.936l-62.629 88.571h-24.936z" fill="#d4aa00"/>
  <path d="m619.97 595.81h24.936l-62.629 88.571h-24.936z" fill="#d4aa00"/>
  <path d="m658.35 595.81h24.936l-62.629 88.571h-24.936z" fill="#d4aa00"/>
  <g transform="translate(61.114 -35.314)" fill="#d4aa00">
   <path d="m106.05 630.81h24.936l-62.629 88.571h-24.936z" clip-path="url(#a)"/>
   <path d="m69.62 630.81h24.936l-62.629 88.571h-24.936z" clip-path="url(#a)"/>
   <path d="m636.21 630.81h24.936l-62.629 88.571h-24.936z" clip-path="url(#a)"/>
   <path d="m669.78 630.81h24.936l-62.629 88.571h-24.936z" clip-path="url(#a)"/>
  </g>
  <path d="m150.61 596.94h515.77a18.487 18.487 0 0 1 18.487 18.487v6.1396a18.487 18.487 0 0 1 -18.487 18.487h-515.77a18.487 18.487 0 0 1 -18.487 -18.487v-6.1396a18.487 18.487 0 0 1 18.487 -18.487" fill="url(#b)" opacity=".45575"/>
 </g>
</svg>
