<?xml version="1.0" encoding="UTF-8"?>
<svg viewBox="0 0 146.37993 146.37993" xmlns="http://www.w3.org/2000/svg">
 <g transform="matrix(1.2579 .43304 -.43304 1.2579 -31.19 -674.59)" stroke="#000">
  <path transform="translate(-8.2143 2.8571)" d="m317.86 503.08c0 28.995-23.505 52.5-52.5 52.5s-52.5-23.505-52.5-52.5 23.505-52.5 52.5-52.5 52.5 23.505 52.5 52.5z" fill="#ea8e0b" stroke-width="5"/>
  <path d="m251.07 452.36c13.664 21.371 31.693 32.558 53.929 33.929" fill="none" stroke-width="3"/>
  <path d="m211.79 479.51c41.883-8.77 75.922 0.43681 95 43.929" fill="none" stroke-width="3"/>
  <path d="m207.5 523.79c51.186-44.221 82.415-49.421 70 30.714" fill="none" stroke-width="3"/>
  <path d="m282.86 459.86c-8.953 35.104-28.318 63.961-46.429 93.571" fill="none" stroke-width="3"/>
 </g>
</svg>
