<?xml version="1.0" encoding="UTF-8"?>
<svg viewBox="0 0 625 666" xmlns="http://www.w3.org/2000/svg">
 <defs>
  <linearGradient id="b" x1=".44143" x2=".50025" y1=".17184" y2=".67443">
   <stop stop-color="#fff" stop-opacity=".5216" offset="0"/>
   <stop stop-color="#fff" stop-opacity="0" offset="1"/>
  </linearGradient>
  <radialGradient id="a" cx="176.87" cy="133.99" r="462.5" gradientUnits="userSpaceOnUse">
   <stop stop-color="#97979a" offset="0"/>
   <stop offset="1"/>
  </radialGradient>
 </defs>
 <path d="m622.17 313.52c0 168.73-138.67 305.51-309.72 305.51s-309.72-136.78-309.72-305.51 138.67-305.51 309.72-305.51 309.72 136.78 309.72 305.51z" fill="url(#a)" stroke="#000" stroke-linecap="round" stroke-linejoin="round" stroke-width="5.46"/>
 <path d="m327.2 228.07c0.023 63.1-49.508 119.7-110.61 126.4s-110.64-39.034-110.62-102.14c-0.023-63.099 49.508-119.7 110.62-126.4s110.64 39.034 110.61 102.14z" fill="#fff"/>
 <path d="m21.952 261.67c31.806-75.54 34.596-108.21 94.801-160.63 38.695-34.437 81.559-64.525 153.77-77.401 68.232-4.9241 112.84 6.912 112.84 6.912-73.552-21.867-130.17 11.638-208.34 56.903-60.244 41.551-111.33 100.67-153.07 174.22z" fill="#fff" fill-opacity=".1838" fill-rule="evenodd"/>
 <path d="m291.61 612.04s85.292 8.123 134.03-12.185 117.78-81.23 142.15-121.84c24.369-40.616 52.799-97.477 52.799-134.03s0-93.415-12.184-117.78l-28.431-56.861s24.369 77.169 16.246 129.97-20.307 93.415-56.861 162.46c-44.677 64.985-56.861 81.231-105.6 117.78-69.046 36.553-142.15 32.492-142.15 32.492z" fill="#fff" fill-opacity=".1838" fill-rule="evenodd"/>
 <path d="m207.028,233.839c-7.791-4.293-15.125-5.999-22.004-5.119-6.824.911-12.33,4.308-16.517,10.19s-5.256,11.724-3.208,17.523c2.103,5.83 7.049,10.891 14.84,15.184s15.125,5.999 22.004,5.119c6.909-.925 12.442-4.306 16.598-10.145 4.187-5.883 5.229-11.739 3.127-17.568-2.049-5.8-6.995-10.861-14.84-15.184m-12.392-14.654c-6.041-5.27-9.656-10.933-10.845-16.987-1.135-6.024 4.258-12.819 8.228-18.397 5.552-7.8 14.37-11.078 24.466-11.824 10.15-.716 16.261,2.236 28.272,8.854 12.064,6.648 19.919,14.131 23.565,22.449s2.692,16.377-2.859,24.176c-3.97,5.578-9.31,9.217-16.019,10.919-6.656,1.732-13.97,1.372-21.941-1.079 6.844,5.834 10.922,12.115 12.234,18.844 1.366,6.758-.701,24.257-5.136,30.488-6.73,9.455-20.873,13.322-31.666,14.412-10.739,1.119-23.373-6.802-36.736-14.166s-15.347-20.354-18.945-29.374c-3.544-8.99-1.951-18.212 4.779-27.668 4.435-6.231 10.406-10.281 17.913-12.15s15.737-1.369 24.69,1.503m8.835-24.16c-3.598,5.055-4.457,10.072-2.577,15.05 1.933,5.009 6.444,9.466 13.531,13.371 7.033,3.876 13.532,5.486 19.498,4.83 6.019-.626 10.828-3.467 14.425-8.521s4.403-10.101 2.415-15.14c-1.933-5.009-6.417-9.451-13.45-13.326-7.087-3.906-15.601-7.518-21.566-6.862-5.912.686-8.678,5.544-12.276,10.598"/>
 <path d="m393.65 26.782c-18.364-17.013-87.68-26.782-177.86-2.8399-89.672 32.469-129.13 76.356-144.99 101.93 6.5032 20.734 79.62 1.083 168.55-26.813s160.8-51.547 154.29-72.281z" fill="url(#b)"/>
</svg>
