<?xml version="1.0" encoding="UTF-8"?>
<svg viewBox="0 0 400 400" xmlns="http://www.w3.org/2000/svg" xmlns:xlink="http://www.w3.org/1999/xlink">
 <defs>
  <linearGradient id="a">
   <stop stop-color="#fff" offset="0"/>
   <stop stop-color="#fff" stop-opacity="0" offset="1"/>
  </linearGradient>
  <linearGradient id="f" x1="406.18" x2="371.18" y1="393.48" y2="486.37" gradientUnits="userSpaceOnUse" xlink:href="#a"/>
  <linearGradient id="e" x1="234.2" x2="280.64" y1="446.18" y2="493.68" gradientUnits="userSpaceOnUse" xlink:href="#a"/>
  <linearGradient id="d" x1="478.86" x2="480.53" y1="485.27" y2="577.27" gradientUnits="userSpaceOnUse" xlink:href="#a"/>
  <linearGradient id="c" x1="260" x2="318.76" y1="557.86" y2="636.86" gradientUnits="userSpaceOnUse" xlink:href="#a"/>
  <linearGradient id="b" x1="331.27" x2="360.54" y1="357.13" y2="409.24" gradientUnits="userSpaceOnUse" xlink:href="#a"/>
  <linearGradient id="g" x1="472.88" x2="465.46" y1="371.69" y2="461.46" gradientUnits="userSpaceOnUse" xlink:href="#a"/>
 </defs>
 <g transform="matrix(1.3321 0 0 1.3398 -299.33 -501.15)">
  <path transform="matrix(1.0442 0 0 1.0514 -35.121 -45.548)" d="m520.23 542.24a125.26 127.28 0 1 1 -250.52 0 125.26 127.28 0 1 1 250.52 0z" fill="none" stroke="#000"/>
  <path d="m280.34 484.85c2.744-4.1424 40.92-9.0952 46.582-6.5479 5.9583 2.6802 29.091 36.123 29.839 41.889 0.70267 5.4147-12.166 52.096-16.105 55.605-3.7354 3.3287-43.057 8.6731-46.171 7.2443-3.412-1.5655-29.142-38.642-29.406-44.851-0.27941-6.5611 12.62-49.354 15.261-53.34z" fill="#fff" fill-rule="evenodd" stroke="#000"/>
  <path d="m327.86 478.08c-1.0356 4.5461 27.756 38.509 29.282 42.666 10.546-3.6703 50.45-10.287 53.575-13.737 3.2909-3.6337 3.7069-44.971 2.5-51.786-4.3486-3.8092-44.919-21.452-49.643-18.214-6.8691 1.9234-34.664 36.461-35.714 41.071z" fill-rule="evenodd" stroke="#000"/>
  <path d="m357.5 521.29c4.706-4.156 48.076-15.378 54.293-13.384 6.1041 1.958 35.178 33.36 36.591 39.812-0.60614 5.9341-13.871 44.567-15.884 50.714-4.7162 3.5775-49.325 15.9-53.571 14.286-3.9364-1.4966-38.174-32.622-37.857-37.857s11.927-49.596 16.429-53.571z" fill="#fff" fill-rule="evenodd" stroke="#000"/>
  <path d="m270.2 454.15s6.3916 27.738 9.4445 29.996c2.8734 2.1253 43.348-4.3562 46.786-6.4286 3.1724-1.9123 36.637-36.974 36.429-41.429-0.20819-4.4564-7.3427-26.194-11.429-28.571-4.3555-2.5345-45.714 5.7143-45.714 5.7143-12.367 9.2855-40.134 30.784-35.516 40.718z" fill="#fff" fill-rule="evenodd" stroke="#000"/>
  <path d="m351.62 407.18c5.1569-2.8558 33.02-11.075 41.043-15.159 18.334-0.60219 47.299 14.242 51.266 18.579 0 0 8.5549 21.804 9.2714 29.441-3.3768 3.8208-31.876 13.802-38.37 14.636-6.5288 0.83859-51.439-19.109-51.439-19.109s-7.3842-23.922-11.771-28.387z" fill="#fff" fill-rule="evenodd" stroke="#000"/>
  <path d="m453.21 440.93c5.2114-2.0582 30.315 28.267 37.496 39.381 3.3806 14.915-4.6393 52.404-4.6393 52.404s-33.45 15.502-37.864 14.805c-3.1013-4.8594-36.414-40.336-36.414-40.336s1.6667-50.964 2.85-52.327c1.5138-1.743 33.565-11.951 38.571-13.929z" fill="#fff" fill-rule="evenodd" stroke="#000"/>
  <path d="m269.47 449.52s7.4418 31.531 10.534 36.061c-2.2747 5.2435-10.179 26.069-15.272 52.404-3.0774 0.799-16.871-0.61873-16.871-0.61873-5.7774-27.276 8.7339-72.257 21.609-87.846z" fill-rule="evenodd" stroke="#000"/>
  <path d="m448.67 548.44c4.239-2.1554 15.217-4.1142 38.115-15.361 4.6836 9.8249 9.5426 28.985 5.7143 42.5-0.79256 5.3002-32.143 39.286-32.143 39.286s-19.625-6.7-27.143-17.143c4.2682-10.443 10.634-36.073 15.456-49.282z" fill-rule="evenodd" stroke="#000"/>
  <path d="m294.92 583.7c14.098 0.58961 40.081-5.6259 45.081-7.7688 2.6136 4.4231 27.361 30.597 38.483 37.33-7.5 3.5714-22.054 28.027-22.054 28.027s-44.23-9.0177-48.296-15.626c-4.1669-6.7725-11.755-37.899-13.214-41.962z" fill-rule="evenodd" stroke="#000"/>
  <path d="m247.32 538.18s11.144-1.3049 17.677 0.60616c4.1727 8.6279 29.286 44.286 29.286 44.286s12.416 37.12 13.214 42.5c-3.2143 3.2143-8.2143 6.0714-8.2143 6.0714s-20.882-16.652-34.107-38.125c-13.323-21.631-17.855-55.338-17.855-55.338z" fill="#fff" fill-rule="evenodd" stroke="#000"/>
  <path d="m306.62 412.44c23.77-4.1181 43.153-5.4373 45.339-5.7071 2.0897-0.25794 40.18-14.728 40.18-14.728s-27.978-1.5854-45.714 2.5c-15.279 3.5196-35.645 14.451-39.805 17.935z" fill-rule="evenodd" stroke="#000"/>
  <path d="m444.29 410.22s8.1961 24.69 9.7348 29.816c12.114 4.8232 37.051 38.755 37.051 38.755l6.8669-5.3607s-13.127-26.508-20.796-35.711c-7.1429-8.5714-31.429-27.5-32.857-27.5z" fill-rule="evenodd" stroke="#000"/>
  <path d="m490.73 479.53c5.9553-4.7818 7.4844-5.9028 7.4844-5.9028 0.0655 0 10.917 30.178 9.9607 52.833-0.74823 17.734-5.004 36.902-7.9457 43.974-0.91452 1.5036-2.5394 2.2696-7.541 4.4941 4.7211-11.286-2.563-38.135-6.425-42.424 2.3957-8.1845 4.7612-48.068 4.4666-52.974z" fill="#fff" fill-rule="evenodd" stroke="#000"/>
  <path d="m300.27 631.63 7.0711-5.8084s18.694 10.56 48.992 15.91c0.21672 5.4322 10.354 16.162 10.354 16.162s-25.506-3.5355-44.699-13.132-21.718-12.879-21.718-13.132z" fill="#fff" fill-rule="evenodd" stroke="#000"/>
  <path d="m378.71 613c18.238-1.475 54.902-14.445 54.902-14.445s22.218 15.54 26.769 15.91c5e-3 6.4305-0.75762 13.637-0.75762 13.637s-17.93 16.162-41.669 23.234c-31.238 9.3048-51.518 6.566-51.518 6.566s-6.8173-7.9954-10.102-15.405c1.0089-5.3891 18.465-27.124 22.375-29.496z" fill="#fff" fill-rule="evenodd" stroke="#000"/>
  <path d="m460.89 614.33c11.989-11.075 32.143-39.286 32.143-39.286l6.25-3.0357s-9.1202 22.22-16.429 31.429c-8.1888 10.318-23.036 24.286-23.036 24.286s1.4035-4.8176 1.0714-13.393z" fill="#fff" fill-rule="evenodd" stroke="#000"/>
  <path d="m328.5 478.88c45.938 1.8037 77.196-0.49903 85.357-22.857-4.3486-3.8092-44.919-18.702-49.643-19.464-5.3691 4.1734-34.664 37.711-35.714 42.321z" fill="url(#f)" fill-rule="evenodd"/>
  <path d="m269.61 449.32s6.4418 28.031 9.5339 32.561c-2.2747 5.2435-11.679 6.5687-19.772 31.404-15.423-18.989 0.84652-33.576 10.238-63.965z" fill="url(#e)" fill-rule="evenodd"/>
  <path d="m448.31 548.74c4.239-2.1554 15.217-4.1142 38.115-15.361 18.374 36.565-9.1997 9.0967-53.571 64.643 4.2682-10.443 10.634-36.073 15.456-49.282z" fill="url(#d)" fill-rule="evenodd"/>
  <path d="m294.98 583.42c14.098 0.58961 40.081-5.6259 45.081-7.7688 2.6136 4.4231 18.861 22.597 29.983 29.33-36.09 3.7731-60.566 28.267-75.064-21.562z" fill="url(#c)" fill-rule="evenodd"/>
  <path d="m307.02 411.99c23.77-4.1181 37.496-5.4373 39.682-5.7071 7.0893-9.876 46.192-19.513 0.12292-12.228-15.279 3.5196-35.645 14.451-39.805 17.935z" fill="url(#b)" fill-rule="evenodd"/>
  <path d="m443.46 409.17s8.1961 24.69 9.7348 29.816c21.503 2.9991 40.58 29.617 23.122-2.316-7.1429-8.5714-31.429-27.5-32.857-27.5z" fill="url(#g)" fill-rule="evenodd"/>
 </g>
</svg>
