<?xml version="1.0" encoding="UTF-8"?>
<svg viewBox="0 0 258.12805 76.145317" xmlns="http://www.w3.org/2000/svg">
 <defs>
  <clipPath id="c">
   <path d="m731.85 198.52-0.18523 76.145h-241.66l-0.18524-76.145z"/>
  </clipPath>
  <clipPath id="b">
   <path d="m737.49 194.52-0.18646 76.145h-243.26l-0.18648-76.145z"/>
  </clipPath>
  <radialGradient id="a" cx="815.15" cy="933.96" r="54.688" gradientTransform="matrix(-.01424 1.6399 -3.374 -.03577 3745.2 -1087.5)" gradientUnits="userSpaceOnUse">
   <stop stop-color="#7f4823" offset="0"/>
   <stop stop-color="#392010" offset="1"/>
  </radialGradient>
 </defs>
 <g transform="translate(-487.67 -194.52)">
  <path d="m745.8 194.52-0.19756 76.145h-257.73l-0.19757-76.145z" fill="url(#a)"/>
  <g transform="matrix(1.0595 0 0 1 -35.579 0)" clip-path="url(#b)" fill="#733c00" fill-opacity=".3455">
   <path d="m507.34 195.06c-0.80876 0.94732 0.15149 2.2062 1.0625 2.6562 5.0569 1.8745 10.514 1.8528 15.825 2.175 8.9652 0.60946 17.95 0.9126 26.934 1.062 12.839 0.17273 25.675-0.27114 38.512-0.42654 8.9438-0.16074 17.891-0.19464 26.833 0.072 10.066 0.29472 20.138 0.56921 30.209 0.46128 17.75-0.33644 35.509-0.68814 53.259-0.16299 8.5292 0.2271 17.062 0.37294 25.585 0.78799 1.0836 0.22962 3.2346 0.93157 3.4062-0.75-0.15196-1.5255-1.9133-1.5177-3.0247-1.2224-6.822 0.3784-13.656 0.0759-20.483 0.0701-19.989-0.23665-39.979-0.39046-59.969-0.5982-17.382-0.2268-34.76-0.80712-52.144-0.86241-17.111 0.11842-34.218 0.75151-51.33 0.57497-7.1166-0.1707-14.248-0.30693-21.321-1.1815-4.1684-0.45351-8.2925-1.3278-12.26-2.6868-0.33985-5e-3 -0.85803-0.35921-1.0938 0.0312z"/>
   <path d="m492 203.22c-1.0574 0.84461-0.19853 2.965 1.1875 2.6562 12.266 0.5539 24.527 1.2499 36.801 1.6227 7.7757 0.23868 15.555 0.29695 23.334 0.18409 15.636-0.16396 31.269-0.57079 46.904-0.78485 21.286-0.41283 42.573-0.78346 63.86-1.1877 14.365-0.23399 28.73-0.55555 43.097-0.64676 7.7214-2e-3 15.441 0.20336 23.161 0.28125 0.80447 0.66683 2.9055 0.6308 2.6875-0.8125-2.0165-0.40695-4.0859-3e-3 -6.1187-0.27224-11.831-0.4782-23.667-1.0732-35.511-0.91868-24.651 0.17021-49.298 0.65929-73.947 0.89647-22.151 0.21662-44.303 0.38837-66.454 0.60695-9.6217 0.0146-19.248 0.1435-28.863-0.30529-9.7418-0.38636-19.477-0.93756-29.212-1.4447-0.30725 0.0413-0.66233-0.10361-0.92481 0.125z"/>
   <path d="m740.94 208.12c-42.569 0.8585-85.136 1.794-127.71 2.4106-35.603 0.48967-71.207 0.85461-106.81 1.4689l-11.514 0.18305c-1.2333-0.41245-3.1175 0.18191-3.1562 1.6875 0.39191 1.3704 2.0464 1.6848 3.2812 1.625 13.926-0.29898 27.851-0.64147 41.779-0.87365 28.038-0.50596 56.077-0.9712 84.114-1.5548 37.895-0.79161 75.788-1.6623 113.68-2.4649 1.7094 4e-3 3.4255-0.12627 5.1241 0.0808 0.99067 0.0395 2.6242-0.4194 2.4583-1.6673-0.089-0.56935-0.66576-1.0791-1.2522-0.89516z"/>
   <path d="m735.91 218.88c-19.152 0.45918-38.315 0.24543-57.465 0.83438-15.889 0.36031-31.769 1.0811-47.661 1.2695-8.8827 0.12398-17.767 0.0254-26.644-0.31981-12.475-0.37122-24.943-0.93792-37.419-1.2577-11.119-0.32528-22.258-0.40669-33.361 0.37096-13.028 0.75466-26.053 1.5798-39.074 2.4464-1.1743-0.022-2.7385-0.37023-3.5312 0.75-0.63357 0.94517 0.30848 2.1081 1.2812 2.2812 1.3528 0.26567 2.699-0.20041 4.0692-0.0985 20.273-0.45459 40.545-0.98768 60.819-1.3758 17.092-0.32685 34.188-0.39406 51.283-0.35526 17.084 0.10142 34.164-0.37668 51.235-0.99254 17.684-0.63011 35.373-1.2043 53.069-1.2938 7.2161-0.0748 14.434-0.0677 21.649 0.11587 1.1157 0.2273 2.9606 0.44843 3.3438-0.96875 0.18469-0.81033-0.83686-1.5981-1.5938-1.4062z"/>
   <path d="m659.88 226.84-160.84 4.375c-0.80349-0.53843-3.0762-0.19053-2.5 1.0938 0.87979 0.73276 2.2251 0.25098 3.2936 0.29869 1.4452 0.0386 2.8895 0.22975 4.3427 0.24767 7.8357 0.30388 15.677-6e-3 23.514-0.12182 28.3-0.67447 56.596-1.5218 84.898-2.1018 23.232-0.47709 46.467-0.90462 69.704-1.0445 15.816-0.13557 31.632-0.14453 47.448-0.18025 1.5378 0.0954 3.1124-0.12932 4.6123 0.27708 1.2123 0.47811 3.2124-0.5209 2.1875-1.9375-1.0672-1.406-2.9137-0.56904-4.3555-0.53974-6.9684 0.27813-13.947 0.32138-20.921 0.39498-8.3239 0.0437-16.649-0.0499-24.968-0.34111-8.8018-0.21596-17.606-0.53471-26.412-0.42038z"/>
   <path d="m491.44 235.34c-1.4746 0.36287-0.92347 2.867 0.5 2.8438 8.3206-0.0163 16.644 0.36405 24.964 0.57784 31.488 0.85298 62.975 1.7565 94.467 2.4222 13.167 0.0203 26.289-1.4268 39.458-1.3125 18.521 0.0174 37.041 0.31921 55.562 0.3974 11.347 0.13086 22.706 0.0117 34.04 0.64811 1.1804 0.41578 2.7195-0.26578 2.8203-1.608-2e-3 -1.2162-1.4471-1.6515-2.4488-1.715-1.3487-0.0642-2.7 0.0543-4.0522 2.5e-4 -17.158 0.0454-34.319 0.0771-51.475-0.26106-9.1158-0.14024-18.233-0.2364-27.349-0.2713-9.0925 0.0588-18.167 0.68056-27.25 1.0397-9.9317 0.47283-19.877 0.75406-29.819 0.53277-8.7798-0.13858-17.553-0.53887-26.331-0.75744-27.112-0.86676-54.22-1.8564-81.337-2.5366-0.58283 0.0101-1.1692-0.0851-1.75 0z"/>
   <path d="m489.03125,238c.18496.2897.30961-.17824 0,0z"/>
   <path d="m492.72 243.38c-1.2827 0.64978 0.47491 1.7013 1.3234 1.4369 1.3911 0.0479 2.789-0.0768 4.1834 4e-3 10.752-0.031 21.5 0.35645 32.236 0.93191 13.306 0.61888 26.603 1.4563 39.922 1.7656 17.361 0.41648 34.728 0.45017 52.093 0.57635 11.586-0.0262 23.172-0.15667 34.755-0.47731 12.508-0.3252 25.014-0.73765 37.52-1.1436 7.2743 3e-3 14.51 0.84705 21.773 1.1377 8.1249 0.46065 16.254 0.82913 24.383 1.2061 0.46649-0.11304-0.2162-1.3175-0.79349-0.85918-7.1265-0.37984-14.265-0.47136-21.393-0.8117-4.0413-0.16557-8.0612-0.60665-12.087-0.96562-8.3514-0.6181-16.732-0.2169-25.095-0.12337-16.082 0.28618-32.16 1.069-48.248 0.79525-12.959-0.0723-25.911-0.51267-38.865-0.84029-24.298-0.68495-48.59-1.5791-72.887-2.3008-7.6942-0.18215-15.391-0.33016-23.087-0.34239-1.9084 0.0266-3.8298 6.5e-4 -5.7307 0.0106z"/>
   <path d="m491.87 252.2c0.88258 0.98509 2.1812 1.3368 3.5569 1.4852 6.0092 0.38024 10.469 0.35256 16.459 0.86313 0.75623-0.90702 2.2457 1.0794 0.39149 0.95641-4.3251-8e-3 -5.9256-0.44629-10.246-0.33223l-10.004 0.22877c-0.9279 0.29558-2.1247 1.6484-1.1184 2.0682 17.707-0.0712 35.413 0.0481 53.12 6.3e-4 11.169-0.0318 22.336-0.22407 33.505-0.30962 31.87-0.34577 63.739-0.77646 95.609-1.1413l66.229-0.79213c1.2616 0.19838 3.0851-0.15805 3.2049-1.1978-0.44121-1.0458-2.2366-1.3157-3.6134-1.1978-14.115 0.32457-28.237 0.49177-42.357 0.66374-16.128 0.22035-32.257 0.42825-48.386 0.64291-1.2422-0.68692-2.8581-0.18843-4.2732-0.19599-9.5735-0.075-19.146 0.1168-28.719 0.17422-24.267 0.24518-48.534 0.50692-72.802 0.69688l-50.587-2.7004 0.0314 0.0871z"/>
   <path d="m512.19 263.46c-4.3016-8e-3 -8.5972 0.12747-12.894 0.23416l-9.9495 0.21399c-0.92286 0.27648-2.1132 1.5418-1.1123 1.9346 17.61-0.0666 35.221 0.045 52.831 5.9e-4 11.109-0.0297 22.215-0.20959 33.323-0.28962 31.697-0.32342 63.392-0.72627 95.089-1.0676l65.869-0.74094c1.2547 0.18556 3.0684-0.14784 3.1875-1.1204-0.43882-0.97822-2.2244-1.2307-3.5938-1.1204-14.039 0.3036-28.083 0.45999-42.127 0.62085-16.041 0.20611-32.082 0.40058-48.123 0.60137-1.2354-0.64254-2.8426-0.17626-4.25-0.18334-9.5215-0.0701-19.042 0.10926-28.562 0.16297-24.135 0.22934-48.27 0.47416-72.406 0.65184-9.0368-0.66351-18.197 0.38042-27.281 0.10185z"/>
  </g>
  <g transform="matrix(1.0665 0 0 1 -34.741 -4)" clip-path="url(#c)" fill="#371d00" fill-opacity=".3455">
   <path d="m507.34 195.06c-0.80876 0.94732 0.15149 2.2062 1.0625 2.6562 5.0569 1.8745 10.514 1.8528 15.825 2.175 8.9652 0.60946 17.95 0.9126 26.934 1.062 12.839 0.17273 25.675-0.27114 38.512-0.42654 8.9438-0.16074 17.891-0.19464 26.833 0.072 10.066 0.29472 20.138 0.56921 30.209 0.46128 17.75-0.33644 35.509-0.68814 53.259-0.16299 8.5292 0.2271 17.062 0.37294 25.585 0.78799 1.0836 0.22962 3.2346 0.93157 3.4062-0.75-0.15196-1.5255-1.9133-1.5177-3.0247-1.2224-6.822 0.3784-13.656 0.0759-20.483 0.0701-19.989-0.23665-39.979-0.39046-59.969-0.5982-17.382-0.2268-34.76-0.80712-52.144-0.86241-17.111 0.11842-34.218 0.75151-51.33 0.57497-7.1166-0.1707-14.248-0.30693-21.321-1.1815-4.1684-0.45351-8.2925-1.3278-12.26-2.6868-0.33985-5e-3 -0.85803-0.35921-1.0938 0.0312z"/>
   <path d="m492 203.22c-1.0574 0.84461-0.19853 2.965 1.1875 2.6562 12.266 0.5539 24.527 1.2499 36.801 1.6227 7.7757 0.23868 15.555 0.29695 23.334 0.18409 15.636-0.16396 31.269-0.57079 46.904-0.78485 21.286-0.41283 42.573-0.78346 63.86-1.1877 14.365-0.23399 28.73-0.55555 43.097-0.64676 7.7214-2e-3 15.441 0.20336 23.161 0.28125 0.80447 0.66683 2.9055 0.6308 2.6875-0.8125-2.0165-0.40695-4.0859-3e-3 -6.1187-0.27224-11.831-0.4782-23.667-1.0732-35.511-0.91868-24.651 0.17021-49.298 0.65929-73.947 0.89647-22.151 0.21662-44.303 0.38837-66.454 0.60695-9.6217 0.0146-19.248 0.1435-28.863-0.30529-9.7418-0.38636-19.477-0.93756-29.212-1.4447-0.30725 0.0413-0.66233-0.10361-0.92481 0.125z"/>
   <path d="m740.94 208.12c-42.569 0.8585-85.136 1.794-127.71 2.4106-35.603 0.48967-71.207 0.85461-106.81 1.4689l-11.514 0.18305c-1.2333-0.41245-3.1175 0.18191-3.1562 1.6875 0.39191 1.3704 2.0464 1.6848 3.2812 1.625 13.926-0.29898 27.851-0.64147 41.779-0.87365 28.038-0.50596 56.077-0.9712 84.114-1.5548 37.895-0.79161 75.788-1.6623 113.68-2.4649 1.7094 4e-3 3.4255-0.12627 5.1241 0.0808 0.99067 0.0395 2.6242-0.4194 2.4583-1.6673-0.089-0.56935-0.66576-1.0791-1.2522-0.89516z"/>
   <path d="m735.91 218.88c-19.152 0.45918-38.315 0.24543-57.465 0.83438-15.889 0.36031-31.769 1.0811-47.661 1.2695-8.8827 0.12398-17.767 0.0254-26.644-0.31981-12.475-0.37122-24.943-0.93792-37.419-1.2577-11.119-0.32528-22.258-0.40669-33.361 0.37096-13.028 0.75466-26.053 1.5798-39.074 2.4464-1.1743-0.022-2.7385-0.37023-3.5312 0.75-0.63357 0.94517 0.30848 2.1081 1.2812 2.2812 1.3528 0.26567 2.699-0.20041 4.0692-0.0985 20.273-0.45459 40.545-0.98768 60.819-1.3758 17.092-0.32685 34.188-0.39406 51.283-0.35526 17.084 0.10142 34.164-0.37668 51.235-0.99254 17.684-0.63011 35.373-1.2043 53.069-1.2938 7.2161-0.0748 14.434-0.0677 21.649 0.11587 1.1157 0.2273 2.9606 0.44843 3.3438-0.96875 0.18469-0.81033-0.83686-1.5981-1.5938-1.4062z"/>
   <path d="m659.88 226.84-160.84 4.375c-0.80349-0.53843-3.0762-0.19053-2.5 1.0938 0.87979 0.73276 2.2251 0.25098 3.2936 0.29869 1.4452 0.0386 2.8895 0.22975 4.3427 0.24767 7.8357 0.30388 15.677-6e-3 23.514-0.12182 28.3-0.67447 56.596-1.5218 84.898-2.1018 23.232-0.47709 46.467-0.90462 69.704-1.0445 15.816-0.13557 31.632-0.14453 47.448-0.18025 1.5378 0.0954 3.1124-0.12932 4.6123 0.27708 1.2123 0.47811 3.2124-0.5209 2.1875-1.9375-1.0672-1.406-2.9137-0.56904-4.3555-0.53974-6.9684 0.27813-13.947 0.32138-20.921 0.39498-8.3239 0.0437-16.649-0.0499-24.968-0.34111-8.8018-0.21596-17.606-0.53471-26.412-0.42038z"/>
   <path d="m491.44 235.34c-1.4746 0.36287-0.92347 2.867 0.5 2.8438 8.3206-0.0163 16.644 0.36405 24.964 0.57784 31.488 0.85298 62.975 1.7565 94.467 2.4222 13.167 0.0203 26.289-1.4268 39.458-1.3125 18.521 0.0174 37.041 0.31921 55.562 0.3974 11.347 0.13086 22.706 0.0117 34.04 0.64811 1.1804 0.41578 2.7195-0.26578 2.8203-1.608-2e-3 -1.2162-1.4471-1.6515-2.4488-1.715-1.3487-0.0642-2.7 0.0543-4.0522 2.5e-4 -17.158 0.0454-34.319 0.0771-51.475-0.26106-9.1158-0.14024-18.233-0.2364-27.349-0.2713-9.0925 0.0588-18.167 0.68056-27.25 1.0397-9.9317 0.47283-19.877 0.75406-29.819 0.53277-8.7798-0.13858-17.553-0.53887-26.331-0.75744-27.112-0.86676-54.22-1.8564-81.337-2.5366-0.58283 0.0101-1.1692-0.0851-1.75 0z"/>
   <path d="m489.03125,238c.18496.2897.30961-.17824 0,0z"/>
   <path d="m492.72 243.38c-1.2827 0.64978 0.47491 1.7013 1.3234 1.4369 1.3911 0.0479 2.789-0.0768 4.1834 4e-3 10.752-0.031 21.5 0.35645 32.236 0.93191 13.306 0.61888 26.603 1.4563 39.922 1.7656 17.361 0.41648 34.728 0.45017 52.093 0.57635 11.586-0.0262 23.172-0.15667 34.755-0.47731 12.508-0.3252 25.014-0.73765 37.52-1.1436 7.2743 3e-3 14.51 0.84705 21.773 1.1377 8.1249 0.46065 16.254 0.82913 24.383 1.2061 0.46649-0.11304-0.2162-1.3175-0.79349-0.85918-7.1265-0.37984-14.265-0.47136-21.393-0.8117-4.0413-0.16557-8.0612-0.60665-12.087-0.96562-8.3514-0.6181-16.732-0.2169-25.095-0.12337-16.082 0.28618-32.16 1.069-48.248 0.79525-12.959-0.0723-25.911-0.51267-38.865-0.84029-24.298-0.68495-48.59-1.5791-72.887-2.3008-7.6942-0.18215-15.391-0.33016-23.087-0.34239-1.9084 0.0266-3.8298 6.5e-4 -5.7307 0.0106z"/>
   <path d="m491.87 252.2c0.88258 0.98509 2.1812 1.3368 3.5569 1.4852 6.0092 0.38024 10.469 0.35256 16.459 0.86313 0.75623-0.90702 2.2457 1.0794 0.39149 0.95641-4.3251-8e-3 -5.9256-0.44629-10.246-0.33223l-10.004 0.22877c-0.9279 0.29558-2.1247 1.6484-1.1184 2.0682 17.707-0.0712 35.413 0.0481 53.12 6.3e-4 11.169-0.0318 22.336-0.22407 33.505-0.30962 31.87-0.34577 63.739-0.77646 95.609-1.1413l66.229-0.79213c1.2616 0.19838 3.0851-0.15805 3.2049-1.1978-0.44121-1.0458-2.2366-1.3157-3.6134-1.1978-14.115 0.32457-28.237 0.49177-42.357 0.66374-16.128 0.22035-32.257 0.42825-48.386 0.64291-1.2422-0.68692-2.8581-0.18843-4.2732-0.19599-9.5735-0.075-19.146 0.1168-28.719 0.17422-24.267 0.24518-48.534 0.50692-72.802 0.69688l-50.587-2.7004 0.0314 0.0871z"/>
   <path d="m512.19 263.46c-4.3016-8e-3 -8.5972 0.12747-12.894 0.23416l-9.9495 0.21399c-0.92286 0.27648-2.1132 1.5418-1.1123 1.9346 17.61-0.0666 35.221 0.045 52.831 5.9e-4 11.109-0.0297 22.215-0.20959 33.323-0.28962 31.697-0.32342 63.392-0.72627 95.089-1.0676l65.869-0.74094c1.2547 0.18556 3.0684-0.14784 3.1875-1.1204-0.43882-0.97822-2.2244-1.2307-3.5938-1.1204-14.039 0.3036-28.083 0.45999-42.127 0.62085-16.041 0.20611-32.082 0.40058-48.123 0.60137-1.2354-0.64254-2.8426-0.17626-4.25-0.18334-9.5215-0.0701-19.042 0.10926-28.562 0.16297-24.135 0.22934-48.27 0.47416-72.406 0.65184-9.0368-0.66351-18.197 0.38042-27.281 0.10185z"/>
  </g>
 </g>
</svg>
