<?xml version="1.0" encoding="UTF-8"?>
<svg viewBox="0 0 258.12805 76.145317" xmlns="http://www.w3.org/2000/svg">
 <defs>
  <clipPath id="b">
   <path d="m745.8 194.52-0.19756 76.145h-257.73l-0.19757-76.145z"/>
  </clipPath>
  <radialGradient id="a" cx="815.15" cy="933.96" r="54.688" gradientTransform="matrix(-.01424 1.6399 -3.374 -.03577 3745.2 -1087.5)" gradientUnits="userSpaceOnUse">
   <stop stop-color="#eed09c" offset="0"/>
   <stop stop-color="#ca9a47" offset="1"/>
  </radialGradient>
 </defs>
 <g transform="translate(-487.67 -194.52)">
  <path d="m745.8 194.52-0.19756 76.145h-257.73l-0.19757-76.145z" fill="url(#a)"/>
  <g clip-path="url(#b)" fill="#a57037" fill-opacity=".3455">
   <path d="m503.625,192.875c-.60564.75214-.32217,2.02937.5271,2.4764 .9327.55143 1.95542.93053 2.93402,1.39288 1.03395.43374 2.04049.94625 3.09084,1.33285 1.11671.30393 2.26911.455 3.4113.62743 3.66426.35426 7.33895.58393 11.0141.79043 3.49021.21211 6.98124.4187 10.47717.509 5.69387.1843 11.38694.40927 17.08364.48534 6.31896.09016 12.63808.18012 18.95713.25903 4.08995-.04274 8.17995-.07503 12.27016-.06086 22.36515-.01569 44.73032-.04744 67.09545-.05931 14.22184.08526 28.44385.15996 42.66558.25183 9.85367.26899 19.70691.55924 29.5625.74999l20.31726.55749c.8824.04857 1.77765.22714 2.65625.0625 .915-.06499 1.40275-1.13456 1.09375-1.9375-.60866-.96003-1.87061-.85182-2.86071-.89023-3.62059-.12599-7.24276.03433-10.86418.02966-8.47964.0574-16.95896.1597-25.43885.17683-6.48016.03104-12.96063.05468-19.44057-.02094l-88.91754-.55806-52.8844-.33101c-5.57351-.18113-11.14643-.37893-16.71875-.59375-2.63451-.26805-5.27671-.46861-7.90027-.83417-3.03897-.35194-6.07625-.72302-9.09674-1.21202-1.19403-.17039-2.37869-.39658-3.56549-.61006-.62247-.26097-1.25423-.52725-1.9375-.5625 .12878.11854-.10147.40674-.125.125-1.06295-.75946-2.1871-1.42797-3.25-2.1875h-.09375l-.0625.03125z"/>
   <path d="m744.8125,203.375c-10.38384.14273-20.76771.30131-31.15153.43415-2.27055-.05071-4.54178-.08688-6.81253-.0279-2.4274.01618-4.85436-.01917-7.28125-.0625l-66.80779.00287-95.1969.74713c-12.63218-.21406-25.26472-.41333-37.89668-.63663l-6.50957-.20712c-.18382.2353.04825.91262-.46875.75-1.3318.28349-2.68806.41175-4.03125.625-.64443.29105-1.56832-.25011-2.0625.3125-.31421.7648.67645,1.35418 1.33879,1.05263 1.32729-.07928 2.65595-.16103 3.98592-.09537 2.91076.0741 5.8225.04273 8.73309-.02145 1.73434-.01739 3.46882-.05059 5.20237.02362 9.54124.26115 19.0856.37855 28.62853.55994 9.69123.15477 19.38241.31426 29.07364.46789 3.01714.03395 6.03418.10217 9.05154.05239 2.9049-.0274 5.8087-.12895 8.7139-.14241 38.554-.46881 77.10785-.94966 115.66194-1.41049l41.57903-.48675c1.88484.07275 3.76786.19407 5.65156.28125 .81881.02687 2.02596-.63964 1.66094-1.59375-.1649-.39579-.60842-.78118-1.0625-.625z"/>
   <path d="m744.44 207.75-123.06 2.0494-115.28 1.6381c-0.76981 0.64432-1.8274 0.62535-2.7676 0.77434-2.054 0.35198-4.1321 0.51969-6.2011 0.75691-2.988 0.3372-5.9776 0.66033-8.9688 0.96875-0.7287-0.03426-1.5272 0.24445-1.9375 0.875 2.9652 0.21791 5.9318 0.4253 8.9016 0.5638 5.5105 0.04556 11.021 0.05661 16.531 0.15495 1.6739-0.00794 3.3456-0.12338 5.0199-0.13156 7.2-0.14891 14.397-0.41422 21.598-0.54431 20.457-0.43484 40.914-0.88764 61.372-1.2867 34.093-0.69245 68.188-1.3328 102.28-1.9968l36.594-0.71211c2.1934-0.05483 4.3874-0.12468 6.5768-0.26602 0.95787-0.12523 1.8133-1.2451 1.1403-2.115-0.3938-0.56116-1.1266-0.84027-1.7966-0.72875z"/>
   <path d="m715.62 219.25-106.72 1.3438c-17.791-0.28482-35.582-0.583-53.373-0.85945-3.0197-0.03014-6.0399-0.08785-9.0593-0.10142-14.601 0.6336-29.202 1.2538-43.803 1.8958-3.9301 0.2075-7.8634 0.38822-11.784 0.73046l-3.5741 0.39712c-0.92545 0.21058-1.4733 1.3391-1.0312 2.1875 0.47515 0.8771 1.5688 0.74173 2.395 0.5877 1.4663-0.16815 2.9447-0.17208 4.4175-0.24395 1.7989 0.03372 3.5978 0.11143 5.3968 0.11746 21.067-0.43306 42.133-0.87397 63.2-1.2916 30.136-0.48931 60.272-0.98982 90.407-1.472l68.965-1.0413c3.8712 0.28302 7.7463 0.51583 11.611 0.87799 2.7174 0.24514 5.4285 0.55439 8.1403 0.85325 1.0898 0.1253 2.1816 0.23597 3.2575 0.45648 0.87251 0.22595 2.1788-0.121 2.1637-1.2135 0.14028-0.88845-0.62376-1.6742-1.4439-1.8623-0.92797-0.20528-1.8892-0.20132-2.834-0.27833-3.9824-0.22009-7.963-0.47747-11.949-0.61974-4.022-0.1625-8.0435-0.35076-12.066-0.49509-0.77256-0.00613-1.5448 0.01931-2.3172 0.03125z"/>
   <path d="m653.62 227.12c-49.906 1.3182-99.812 2.6303-149.72 3.9375-1.2798 0.09677-2.5825 0.16555-3.8438-0.125-2.0386-0.4684-4.1388-0.50173-6.2188-0.59375-1.1153-0.03328-2.2331 0.09201-3.3125 0.375-1.1254 0.1194-2.2694 0.08333-3.3825 0.29012-0.49301 0.1007-0.66575 0.68227-0.74251 1.1161 2.0813-0.02067 4.1641-0.05429 6.2448-0.01804 3.7144 0.30043 7.4407 0.39055 11.161 0.58054 1.5703 0.02401 3.1397 0.08922 4.7094 0.125 1.5844-0.03371 3.1693-0.08109 4.7547-0.0625 2.0509 0.01326 4.1014-0.00803 6.1514-0.0711 3.9246-0.09996 7.851-0.10072 11.776-0.1887 33.003-0.56538 66.005-1.1397 99.008-1.6995 13.807-0.20199 27.614-0.41846 41.42-0.61139 18.412-0.16669 36.825-0.32456 55.237-0.49677 1.4804-0.0367 2.9635-0.11355 4.4423 0.00494l13.031 0.3125c0.74089-0.06767 1.6044-0.0907 2.1562 0.5-0.09777-0.95581-0.90438-1.8226-1.875-1.9062-7.5177-0.24969-15.035-0.51707-22.553-0.75573-10.523-0.17741-21.048-0.2679-31.572-0.40052-10.997-0.1236-21.994-0.25841-32.991-0.375-1.2956-0.01452-2.5897 0.01763-3.8844 0.0625z"/>
   <path d="m487.1875,236c-.46193.81955-.48248,1.80067-.6238,2.71157-.15227.8542.64013,1.79818 1.52461,1.70938 .96834-.05026 1.87369-.48528 2.8428-.53956 2.53339-.35877 5.08205-.597 7.62616-.86416 1.81595-.13938 3.63027-.30602 5.45191-.3498 1.39906-.04929 2.79863-.09736 4.19819-.03774 14.05846.30381 28.11667.62109 42.17529.91646 22.54741.36468 45.09465.7409 67.64217,1.09835 2.75975.02064 5.51888.10419 8.27825.13214l54.16567-.68289 53.6875.6875c1.08763.19698 2.1758.40566 3.21875.78125 1.28444.38144 2.54567.94828 3.90625.96875 1.16108-.04253 2.29689-.30047 3.4375-.5 .92052-.24212 1.74772-1.08907 1.625-2.09375-.2261-1.00021-1.34034-1.45952-2.28125-1.375-1.01805.09002-2.04294.19886-3.0625.0625-3.1012-.28476-6.19941-.62339-9.3125-.75-2.25706-.15335-4.52073-.12782-6.78125-.1875l-62.77655-.24798-25.22345.27923c-2.39267.15298-4.79156.12782-7.1875.1875-9.75003.13374-19.50067.22609-29.25.40625-3.89422.01718-7.78862.05029-11.68274.05752-28.48488-.77359-56.96953-1.55605-85.45455-2.3241l-15.80021-.35842-.34375.3125zm-1.21875,6.65625c-.20548.14004.12336.08917.09375-.03125l-.09375.03125z"/>
   <path d="m488.28 238.28c0.07898 0.11231 0.00561-0.12488 0 0z"/>
   <path d="m497.22 243.84c-3.3156 0.13089-6.6189 0.49973-9.9062 0.9375-0.12005 1.635 1.5308 1.4656 2.625 1.125 4.2632-0.52821 8.5575-0.8627 12.855-0.6791 18.143 0.22674 36.271 1.0425 54.408 1.5327 19.916 0.55632 39.837 1.0887 59.763 1.0214 19.14-0.0601 38.278-0.30404 57.415-0.6109 13.91-0.19117 27.825-0.13051 41.73 0.32691 8.3776 0.24187 16.761 0.3903 25.141 0.19024 1.2291-0.47193 3.4802 0.45639 4.0938-0.1875-1.0947-1.1892-2.8993-0.30666-4.3035-0.44665-11.102 0.45131-22.201-0.29498-33.299-0.54303-16.682-0.48135-33.372-0.23355-50.056-0.03782-19.533 0.12458-39.066-0.08733-58.593-0.58742-29.587-0.65462-59.174-1.3337-88.763-1.9281-4.3707-0.00646-8.7407-0.21754-13.111-0.1132zm-9.9688 0.84375c0.12702-0.1381-0.08042-0.437 0 0z"/>
   <path d="m742.78 252.19c-15.597 0.75142-31.218 0.57721-46.826 0.89305-42.197 0.59697-84.397 1.0124-126.6 1.2786-10.381 0.0105-20.762 0.21202-31.142 0.04292-13.66-0.35924-27.295-1.307-40.946-1.8775-3.1727-0.06668-6.3481 0.02469-9.5195-0.05588 0.15702 1.7816 2.277 1.161 3.4728 1.25 6.4015 0.0104 12.792 0.44217 19.183 0.75 1.6267 0.66465-1.1173 1.7592-1.8651 1.0842-6.363-0.18228-12.754-0.54211-19.104 0.0721-1.1726-1.2862-3.1936 1.3461-1.4042 1.9133 1.516 0.70634 3.134-0.25755 4.7068-0.04539 13.645-0.42216 27.297-0.03739 40.944-0.26117 68.157-0.45377 136.31-0.94258 204.47-1.263 2.3242 0.02658 4.6488 0.04746 6.9688 0.1875 1.4813-0.14164 2.2857-2.2016 1.125-3.2188-0.88706-0.93348-2.3029-0.76642-3.4688-0.75z"/>
   <path d="m746.0625,261.5c-2.70721.09859-5.41687.05411-8.125.125l-93.25,1.09375c-1.64441-.61811-3.39706-.08527-5.09375-.15625-4.49989-.0633-8.99989.0343-13.5.03125-32.91338.2472-65.82682.50771-98.74017.7466-3.90248-.10061-7.80605-.0211-11.70886.01359-9.47399.22452-18.95007.34605-28.42597.45856-.32699.6291-.1584,1.9929.46875,2.09375 1.18559-.15178 2.45245.00662 3.66945-.00638 23.33404.06546 46.66738-.20198 70.00091-.32394 12.72511-.06683 25.44941-.23584 38.17436-.32705 31.13103-.26374 62.26191-.54637 93.39303-.79819 2.74858-.03728 5.49671-.00582 8.24437.066 8.50515.12688 17.01033.26433 25.51266.52426 5.06519.14353 10.13368.2164 15.19272.52155 1.30076-.05474 2.55544.38582 3.84375.46875 1.27982-.41285.30059-2.07738 1.05361-2.90969 .29948-.59858.29303-1.87126-.70986-1.62156z"/>
  </g>
 </g>
</svg>
